# xmcd CD database file
#
# Track frame offsets:
#	150
#	36115
#	63113
#	84225
#	108415
#	146213
#
# Disc length: 2381 seconds
#
# Revision: 0
# Processed by: cddbd v1.5.2PL0 Copyright (c) Steve Scherf et al.
# Submitted via: CDex 1.70beta2
#
DISCID=48094b06
DTITLE=Ibrahim, Abdullah - Ekaya
DYEAR=1983
DGENRE=Jazz
TTITLE0=Ekaya
TTITLE1=Sotho blue
TTITLE2=Ntyilo, Ntyilo
TTITLE3=Bra timing form Phomolong
TTITLE4=Ek se ou Windhoek toe nou
TTITLE5=Cape Town
EXTD=YEAR: 1983
EXTT0=
EXTT1=
EXTT2=
EXTT3=
EXTT4=
EXTT5=
PLAYORDER=
